HIERARCHY
ROOT Hips
{
	OFFSET 0.000000 83.214638 0.000000
	CHANNELS 6 Xposition Yposition Zposition Xrotation Yrotation Zrotation
	JOINT Pelvis
	{
		OFFSET 0.000000 0.000000 0.000000
		CHANNELS 3 Xrotation Yrotation Zrotation
		JOINT LeftUpLeg
		{
			OFFSET 8.479700 -4.795502 -0.379100
			CHANNELS 3 Xrotation Yrotation Zrotation
			JOINT LeftLeg
			{
				OFFSET 0.024144 -32.555107 0.112900
				CHANNELS 3 Xrotation Yrotation Zrotation
				JOINT LeftFoot
				{
					OFFSET -0.024144 -32.638630 -3.012600
					CHANNELS 3 Xrotation Yrotation Zrotation
					JOINT LeftToeBase
					{
						OFFSET 0.970200 -13.225400 11.864200
						CHANNELS 3 Xrotation Yrotation Zrotation
						End Site
						{
							OFFSET 0.000000 12.319262 0.000000
						}
					}
					JOINT LFootTongue
					{
						OFFSET 1.142400 -1.059800 6.665200
						CHANNELS 3 Xrotation Yrotation Zrotation
						End Site
						{
							OFFSET 0.000000 12.319262 0.000000
						}
					}
				}
				JOINT LeftPantLeg
				{
					OFFSET 0.918482 -16.533964 -2.284700
					CHANNELS 3 Xrotation Yrotation Zrotation
					End Site
					{
						OFFSET 0.350399 24.744368 0.000000
					}
				}
			}
		}
		JOINT RightUpLeg
		{
			OFFSET -8.479700 -4.795502 -0.379100
			CHANNELS 3 Xrotation Yrotation Zrotation
			JOINT RightLeg
			{
				OFFSET -0.023144 -32.555092 0.112900
				CHANNELS 3 Xrotation Yrotation Zrotation
				JOINT RightFoot
				{
					OFFSET 0.023144 -32.638641 -3.012700
					CHANNELS 3 Xrotation Yrotation Zrotation
					JOINT RightToeBase
					{
						OFFSET -0.970200 -13.225400 11.864200
						CHANNELS 3 Xrotation Yrotation Zrotation
						End Site
						{
							OFFSET 0.000000 12.319244 0.000000
						}
					}
					JOINT RFootTongue
					{
						OFFSET -1.142200 -1.059800 6.665200
						CHANNELS 3 Xrotation Yrotation Zrotation
						End Site
						{
							OFFSET 0.000000 12.319243 0.000000
						}
					}
				}
				JOINT RightPantLeg
				{
					OFFSET -0.919482 -16.533978 -2.284800
					CHANNELS 3 Xrotation Yrotation Zrotation
					End Site
					{
						OFFSET -0.350400 24.744419 0.000000
					}
				}
			}
		}
	}
	JOINT Spine
	{
		OFFSET 0.000000 7.722000 1.166200
		CHANNELS 3 Xrotation Yrotation Zrotation
		JOINT Spine1
		{
			OFFSET 0.000000 12.024101 0.248800
			CHANNELS 3 Xrotation Yrotation Zrotation
			JOINT Spine2
			{
				OFFSET 0.000000 11.502998 -0.491200
				CHANNELS 3 Xrotation Yrotation Zrotation
				JOINT Neck
				{
					OFFSET 0.000000 18.430702 -3.123100
					CHANNELS 3 Xrotation Yrotation Zrotation
					JOINT Head
					{
						OFFSET 0.000000 9.051102 1.034000
						CHANNELS 3 Xrotation Yrotation Zrotation
						JOINT HairB
						{
							OFFSET 0.208400 24.786102 24.822300
							CHANNELS 3 Xrotation Yrotation Zrotation
							End Site
							{
								OFFSET 0.000000 32.263779 0.000000
							}
						}
						JOINT HairA
						{
							OFFSET -7.081100 24.428299 23.196600
							CHANNELS 3 Xrotation Yrotation Zrotation
							End Site
							{
								OFFSET 0.000000 32.263779 0.000000
							}
						}
						JOINT Hat
						{
							OFFSET 16.728800 15.048294 -15.439601
							CHANNELS 3 Xrotation Yrotation Zrotation
							End Site
							{
								OFFSET 0.000000 32.263779 0.000000
							}
						}
					}
				}
				JOINT LeftShoulder
				{
					OFFSET 6.197800 13.665199 -4.064700
					CHANNELS 3 Xrotation Yrotation Zrotation
					JOINT LeftArm
					{
						OFFSET 7.778100 -0.187103 -1.709300
						CHANNELS 3 Xrotation Yrotation Zrotation
						JOINT LeftForeArm
						{
							OFFSET 22.049376 0.000000 0.000000
							CHANNELS 3 Xrotation Yrotation Zrotation
							JOINT LeftHand
							{
								OFFSET 23.009392 0.000000 0.000000
								CHANNELS 3 Xrotation Yrotation Zrotation
								JOINT LeftHandThumb1
								{
									OFFSET 3.507191 -2.063065 3.133727
									CHANNELS 3 Xrotation Yrotation Zrotation
									JOINT LeftHandThumb2
									{
										OFFSET 3.101337 -1.790558 1.790558
										CHANNELS 3 Xrotation Yrotation Zrotation
										JOINT LeftHandThumb3
										{
											OFFSET 3.058640 -1.765907 1.765906
											CHANNELS 3 Xrotation Yrotation Zrotation
											End Site
											{
												OFFSET -0.415260 3.926476 -0.049563
											}
										}
									}
								}
								JOINT LeftHandIndex1
								{
									OFFSET 11.334419 -0.901459 3.706815
									CHANNELS 3 Xrotation Yrotation Zrotation
									JOINT LeftHandIndex2
									{
										OFFSET 3.283112 0.000000 0.000000
										CHANNELS 3 Xrotation Yrotation Zrotation
										JOINT LeftHandIndex3
										{
											OFFSET 3.323853 0.000000 0.000000
											CHANNELS 3 Xrotation Yrotation Zrotation
											End Site
											{
												OFFSET -1.135597 3.097809 0.402452
											}
										}
									}
								}
								JOINT LeftHandMiddle1
								{
									OFFSET 11.335861 0.000000 0.000000
									CHANNELS 3 Xrotation Yrotation Zrotation
									JOINT LeftHandMiddle2
									{
										OFFSET 3.410492 0.000000 0.000000
										CHANNELS 3 Xrotation Yrotation Zrotation
										JOINT LeftHandMiddle3
										{
											OFFSET 3.312172 0.000000 0.000000
											CHANNELS 3 Xrotation Yrotation Zrotation
											End Site
											{
												OFFSET -1.150200 3.080154 0.400270
											}
										}
									}
								}
								JOINT LeftHandRing1
								{
									OFFSET 11.514786 -0.013176 -3.003090
									CHANNELS 3 Xrotation Yrotation Zrotation
									JOINT LeftHandRing2
									{
										OFFSET 3.053307 0.000000 0.000000
										CHANNELS 3 Xrotation Yrotation Zrotation
										JOINT LeftHandRing3
										{
											OFFSET 3.295807 0.000000 0.000000
											CHANNELS 3 Xrotation Yrotation Zrotation
											End Site
											{
												OFFSET -1.281006 3.013344 0.375733
											}
										}
									}
								}
								JOINT LeftHandPinky1
								{
									OFFSET 10.518692 -0.960396 -5.730441
									CHANNELS 3 Xrotation Yrotation Zrotation
									JOINT LeftHandPinky2
									{
										OFFSET 2.861649 0.000000 0.000000
										CHANNELS 3 Xrotation Yrotation Zrotation
										JOINT LeftHandPinky3
										{
											OFFSET 2.863380 0.000000 0.000000
											CHANNELS 3 Xrotation Yrotation Zrotation
											End Site
											{
												OFFSET -0.843597 2.711159 0.369971
											}
										}
									}
								}
							}
							JOINT LSleeve
							{
								OFFSET 6.676277 -0.344902 -1.011730
								CHANNELS 3 Xrotation Yrotation Zrotation
								End Site
								{
									OFFSET 0.000000 14.885353 0.000000
								}
							}
						}
					}
				}
				JOINT RightShoulder
				{
					OFFSET -6.197800 13.665199 -4.064700
					CHANNELS 3 Xrotation Yrotation Zrotation
					JOINT RightArm
					{
						OFFSET -7.778100 -0.187103 -1.709300
						CHANNELS 3 Xrotation Yrotation Zrotation
						JOINT RightForeArm
						{
							OFFSET -22.049376 0.000000 0.000000
							CHANNELS 3 Xrotation Yrotation Zrotation
							JOINT RightHand
							{
								OFFSET -23.009392 0.000000 0.000000
								CHANNELS 3 Xrotation Yrotation Zrotation
								JOINT RightHandThumb1
								{
									OFFSET -3.507191 -2.063065 3.133727
									CHANNELS 3 Xrotation Yrotation Zrotation
									JOINT RightHandThumb2
									{
										OFFSET -3.101337 -1.790558 1.790558
										CHANNELS 3 Xrotation Yrotation Zrotation
										JOINT RightHandThumb3
										{
											OFFSET -3.058640 -1.765907 1.765906
											CHANNELS 3 Xrotation Yrotation Zrotation
											End Site
											{
												OFFSET 0.415260 3.926476 -0.049563
											}
										}
									}
								}
								JOINT RightHandIndex1
								{
									OFFSET -11.334419 -0.901459 3.706815
									CHANNELS 3 Xrotation Yrotation Zrotation
									JOINT RightHandIndex2
									{
										OFFSET -3.283112 0.000000 0.000000
										CHANNELS 3 Xrotation Yrotation Zrotation
										JOINT RightHandIndex3
										{
											OFFSET -3.323853 0.000000 0.000000
											CHANNELS 3 Xrotation Yrotation Zrotation
											End Site
											{
												OFFSET 1.135597 3.097809 0.402452
											}
										}
									}
								}
								JOINT RightHandMiddle1
								{
									OFFSET -11.335861 0.000000 0.000000
									CHANNELS 3 Xrotation Yrotation Zrotation
									JOINT RightHandMiddle2
									{
										OFFSET -3.410492 0.000000 0.000000
										CHANNELS 3 Xrotation Yrotation Zrotation
										JOINT RightHandMiddle3
										{
											OFFSET -3.312172 0.000000 0.000000
											CHANNELS 3 Xrotation Yrotation Zrotation
											End Site
											{
												OFFSET 1.150200 3.080154 0.400270
											}
										}
									}
								}
								JOINT RightHandRing1
								{
									OFFSET -11.514786 -0.013176 -3.003090
									CHANNELS 3 Xrotation Yrotation Zrotation
									JOINT RightHandRing2
									{
										OFFSET -3.053307 0.000000 0.000000
										CHANNELS 3 Xrotation Yrotation Zrotation
										JOINT RightHandRing3
										{
											OFFSET -3.295807 0.000000 0.000000
											CHANNELS 3 Xrotation Yrotation Zrotation
											End Site
											{
												OFFSET 1.281006 3.013344 0.375733
											}
										}
									}
								}
								JOINT RightHandPinky1
								{
									OFFSET -10.518692 -0.960396 -5.730441
									CHANNELS 3 Xrotation Yrotation Zrotation
									JOINT RightHandPinky2
									{
										OFFSET -2.861649 0.000000 0.000000
										CHANNELS 3 Xrotation Yrotation Zrotation
										JOINT RightHandPinky3
										{
											OFFSET -2.863380 0.000000 0.000000
											CHANNELS 3 Xrotation Yrotation Zrotation
											End Site
											{
												OFFSET 0.843597 2.711159 0.369971
											}
										}
									}
								}
							}
							JOINT RSleeve
							{
								OFFSET -6.676277 -0.344902 -1.011730
								CHANNELS 3 Xrotation Yrotation Zrotation
								End Site
								{
									OFFSET 0.000000 14.885353 0.000000
								}
							}
						}
					}
				}
				JOINT Backpack
				{
					OFFSET 0.000000 -2.471497 36.677502
					CHANNELS 3 Xrotation Yrotation Zrotation
					End Site
					{
						OFFSET 0.000000 20.427315 0.000000
					}
				}
				JOINT Hood
				{
					OFFSET 0.000000 18.754097 -10.431000
					CHANNELS 3 Xrotation Yrotation Zrotation
					JOINT Hood1
					{
						OFFSET 0.000000 -5.011002 -7.685901
						CHANNELS 3 Xrotation Yrotation Zrotation
						End Site
						{
							OFFSET 0.000000 9.175140 0.000000
						}
					}
				}
				JOINT LHoodieString
				{
					OFFSET 5.250500 16.397697 3.089900
					CHANNELS 3 Xrotation Yrotation Zrotation
					JOINT LHoodieString1
					{
						OFFSET 0.257700 -6.364304 3.694600
						CHANNELS 3 Xrotation Yrotation Zrotation
						JOINT LHoodieString2
						{
							OFFSET 0.000000 -9.643799 2.679100
							CHANNELS 3 Xrotation Yrotation Zrotation
							End Site
							{
								OFFSET 0.000000 10.009018 0.000000
							}
						}
					}
				}
				JOINT RHoodieString
				{
					OFFSET -5.250500 16.397697 3.089900
					CHANNELS 3 Xrotation Yrotation Zrotation
					JOINT RHoodieString1
					{
						OFFSET -0.257700 -6.364304 3.694600
						CHANNELS 3 Xrotation Yrotation Zrotation
						JOINT RHoodieString2
						{
							OFFSET 0.000000 -9.643799 2.679100
							CHANNELS 3 Xrotation Yrotation Zrotation
							End Site
							{
								OFFSET 0.000000 10.009018 0.000000
							}
						}
					}
				}
			}
			JOINT LBackpack_Strap
			{
				OFFSET 15.223200 -7.719803 -6.610900
				CHANNELS 3 Xrotation Yrotation Zrotation
				End Site
				{
					OFFSET 0.000000 16.040596 0.000000
				}
			}
			JOINT RBackpack_Strap
			{
				OFFSET -15.223000 -7.719803 -6.610900
				CHANNELS 3 Xrotation Yrotation Zrotation
				End Site
				{
					OFFSET 0.000000 16.040596 0.000000
				}
			}
		}
	}
	JOINT BoyFacialAnim_Joint
	{
		OFFSET 1.000000 -82.208099 -1.550900
		CHANNELS 3 Xrotation Yrotation Zrotation
		End Site
		{
			OFFSET 0.000000 30.012791 0.000000
		}
	}
}
MOTION
Frames: 5
Frame Time: 0.033333
-0.153047 84.950005 -0.770986 -3.823166 3.898414 -2.557759 -0.000000 -0.000000 -0.000000 -14.461169 6.651920 12.577089 23.989317 -5.217862 -0.421718 21.050916 6.726863 -10.194537 -0.000000 -0.000000 -0.000000 -0.000000 -0.000000 0.000000 0.000000 -0.000000 -0.000000 -9.959589 -3.931142 6.018416 21.141954 6.049381 0.455527 19.585115 -3.820807 -3.963718 -0.000001 0.000000 0.000000 -0.000001 0.000000 0.000000 0.000001 0.000000 -0.000000 5.988397 0.218962 2.706735 -3.550149 0.580246 0.347332 -3.529451 0.738173 0.342270 2.005142 -0.181000 1.451373 2.162794 0.933317 -0.592863 -0.000000 -0.000000 0.000000 -0.000000 -0.000000 0.000000 -0.000000 -0.000000 0.000000 3.208252 -7.400554 -2.403637 -2.380931 17.483232 -78.263156 0.076707 -11.893675 -2.055659 -1.144213 2.627598 1.086695 10.747816 -0.300333 15.888357 -0.893990 26.402535 -5.939947 0.000000 0.000001 -0.000001 1.217241 0.645963 -5.022090 -1.804790 1.927063 -16.721594 -0.000001 -0.000001 -0.000002 -1.933102 4.452819 -9.346309 -0.039943 4.088378 -23.701007 0.000002 0.000000 -0.000001 -3.661762 10.854157 -6.839691 3.000947 3.464965 -29.220830 -0.000002 -0.000000 -0.000002 -4.043417 12.926436 -17.157864 8.438879 2.595221 -31.032217 0.000001 -0.000000 0.000005 0.000001 0.000001 0.000000 3.348638 -0.132667 4.447656 4.392286 -6.179596 76.336715 -0.466116 16.017033 0.264037 -0.420733 -6.591170 -2.088063 15.830463 -2.790539 -17.226849 -2.089908 -31.112434 7.334360 0.000000 0.000001 -0.000002 2.363699 -3.629171 8.319473 -2.150496 -2.450131 18.519503 -0.000001 -0.000000 0.000003 -1.975731 -5.694976 13.540708 0.269448 -5.105362 26.891976 -0.000000 0.000001 -0.000002 -4.985699 -10.121221 10.687694 4.004200 -4.050427 33.181103 -0.000000 0.000001 0.000000 -6.462134 -11.354783 23.220714 10.740647 -2.555552 34.780051 0.000001 0.000000 0.000004 0.000000 -0.000001 0.000000 -0.000000 -0.000000 -0.000000 -0.000000 -0.000000 -0.000000 -0.000000 -0.000000 -0.000000 -0.000000 -0.000000 -0.000000 -0.000000 -0.000000 -0.000000 -0.000000 -0.000000 -0.000000 -0.000000 -0.000000 -0.000000 -0.000000 -0.000000 -0.000000 -0.000000 -0.000000 -0.000000 0.000000 0.000000 0.000000 0.000000 0.000000 0.000000 -0.000000 -0.000000 -0.000000 
-0.164916 84.951477 -0.696725 -3.877844 3.926944 -2.503943 0.000000 0.000000 -0.000000 -14.298713 6.600677 12.528225 23.938526 -5.185658 -0.432090 21.026671 6.738726 -10.234919 0.000001 0.000000 -0.000001 0.000001 0.000000 -0.000001 0.000000 0.000000 -0.000000 -9.857580 -3.913607 5.997830 21.185104 6.007481 0.437859 19.493199 -3.816684 -3.969010 0.000001 -0.000001 0.000000 0.000001 -0.000001 0.000000 -0.000000 -0.000000 -0.000000 5.926793 0.210606 2.622719 -3.524523 0.581316 0.357407 -3.504654 0.739321 0.353209 2.189275 -0.184766 1.472688 2.103907 0.945478 -0.592325 -0.000000 -0.000000 0.000000 -0.000000 -0.000000 0.000000 -0.000000 -0.000000 0.000000 3.234092 -7.205301 -2.377048 -2.325580 17.335695 -78.284835 0.157945 -11.860460 -2.049389 -1.152197 2.599026 1.054181 10.747450 -0.306563 15.910630 -0.903564 26.402335 -5.943946 -0.000000 0.000001 -0.000000 1.217789 0.651675 -5.034321 -1.804803 1.927205 -16.728178 -0.000001 -0.000001 -0.000002 -1.932995 4.453209 -9.369003 -0.039352 4.088516 -23.721254 -0.000000 -0.000000 0.000000 -3.661921 10.854629 -6.862726 3.000853 3.465517 -29.243868 0.000002 0.000000 -0.000002 -4.047118 12.922986 -17.179543 8.439081 2.595498 -31.047950 0.000001 0.000002 -0.000002 -0.000001 -0.000001 0.000001 3.341433 -0.072567 4.472717 4.413656 -6.134672 76.311088 -0.367672 16.072021 0.239959 -0.415630 -6.609417 -2.106627 15.829090 -2.786639 -17.227141 -2.122043 -31.062976 7.329613 -0.000000 0.000002 0.000001 2.363716 -3.629044 8.313082 -2.150512 -2.449133 18.469900 -0.000000 -0.000001 0.000003 -1.975794 -5.694781 13.529076 0.267894 -5.105071 26.839797 -0.000000 0.000000 -0.000000 -4.985665 -10.121113 10.682504 4.004333 -4.049240 33.132373 0.000001 0.000001 0.000000 -6.462533 -11.354605 23.205918 10.739774 -2.554660 34.724774 -0.000001 -0.000001 0.000002 0.000000 -0.000000 0.000001 0.000000 0.000000 0.000000 0.000000 0.000000 0.000000 0.000000 0.000000 0.000000 0.000000 0.000000 0.000000 0.000000 0.000000 -0.000000 0.000001 0.000000 0.000000 0.000000 0.000000 0.000000 0.000000 0.000000 -0.000000 0.000001 0.000000 0.000000 -0.000000 0.000000 -0.000000 -0.000000 0.000000 -0.000000 0.000000 0.000000 -0.000000 
-0.159832 84.953377 -0.572920 -3.922993 3.941057 -2.447105 0.000000 -0.000000 -0.000000 -14.084128 6.415568 12.434589 23.913276 -5.058883 -0.444402 20.972060 6.774156 -10.310804 -0.000000 0.000001 0.000000 -0.000000 0.000001 0.000000 -0.000001 -0.000001 0.000000 -9.743506 -3.846172 5.972656 21.256078 5.957694 0.396624 19.361645 -3.793966 -3.948186 0.000000 0.000000 0.000000 0.000000 0.000000 0.000000 -0.000000 -0.000000 -0.000000 5.852135 0.200469 2.521716 -3.486691 0.576527 0.363123 -3.467665 0.730437 0.360006 2.320170 -0.194757 1.529935 2.061325 0.978833 -0.598991 -0.000000 -0.000000 0.000000 -0.000000 -0.000000 0.000000 -0.000000 -0.000000 0.000000 3.224801 -7.120374 -2.374469 -2.263975 17.219716 -78.308481 0.319328 -11.853836 -2.043827 -1.146523 2.610050 1.084184 10.745798 -0.323424 15.971332 -0.931884 26.399359 -5.954740 0.000000 -0.000000 0.000003 1.219792 0.672550 -5.067981 -1.804776 1.927671 -16.752446 -0.000001 -0.000000 -0.000004 -1.932722 4.454274 -9.431304 -0.037718 4.088923 -23.776660 0.000003 -0.000001 -0.000000 -3.666596 10.851565 -6.926064 3.000594 3.467045 -29.307051 -0.000000 -0.000001 0.000001 -4.061387 12.910007 -17.238843 8.450452 2.595873 -31.091113 0.000002 -0.000001 0.000001 -0.000000 0.000001 -0.000000 3.319879 0.002261 4.505273 4.415695 -6.001171 76.268269 -0.298676 16.084308 0.226314 -0.414251 -6.518827 -2.123390 15.824592 -2.773904 -17.227977 -2.220013 -30.921585 7.316891 0.000001 -0.000002 0.000000 2.363271 -3.623864 8.289424 -2.150614 -2.446256 18.325626 -0.000000 0.000000 0.000002 -1.975974 -5.694249 13.497316 0.263323 -5.104223 26.688273 0.000000 0.000000 0.000003 -4.985567 -10.120708 10.663346 4.004691 -4.045822 32.990995 -0.000001 0.000000 0.000004 -6.463686 -11.354124 23.165184 10.737398 -2.553558 34.565501 -0.000000 0.000001 0.000000 0.000000 0.000003 0.000001 0.000000 0.000000 0.000000 0.000000 0.000000 0.000000 0.000000 0.000000 0.000000 0.000000 0.000000 0.000000 0.000000 0.000000 0.000000 0.000000 -0.000000 -0.000000 0.000000 0.000000 0.000000 0.000000 0.000000 0.000000 0.000000 -0.000000 -0.000000 -0.000000 0.000000 0.000000 -0.000000 0.000000 0.000000 0.000000 -0.000000 -0.000000 
-0.142580 84.954445 -0.401315 -3.979957 3.938625 -2.417187 0.000000 0.000000 -0.000000 -13.820430 6.112284 12.320433 23.950673 -4.805288 -0.421465 20.876369 6.819710 -10.448288 -0.000001 -0.000001 0.000000 -0.000001 -0.000001 0.000001 -0.000001 -0.000001 -0.000000 -9.589576 -3.656290 6.012102 21.326518 5.819037 0.311438 19.217036 -3.749174 -3.886749 -0.000001 0.000000 -0.000000 -0.000001 0.000000 -0.000000 -0.000000 0.000000 -0.000000 5.763339 0.190509 2.422739 -3.419195 0.564676 0.374884 -3.400979 0.717696 0.373501 2.424234 -0.199993 1.614450 1.962207 1.029128 -0.620000 -0.000000 -0.000000 -0.000000 -0.000000 -0.000000 -0.000000 -0.000000 -0.000000 -0.000000 3.206873 -7.036621 -2.371626 -2.214639 17.052097 -78.353287 0.521634 -11.812383 -2.041880 -1.136204 2.536870 1.133683 10.743311 -0.348659 16.062045 -0.975430 26.395276 -5.968898 -0.000000 -0.000000 0.000001 1.222757 0.703695 -5.118194 -1.804758 1.928395 -16.788730 -0.000001 -0.000001 -0.000000 -1.932342 4.455858 -9.524356 -0.035232 4.089519 -23.859470 0.000001 -0.000001 -0.000000 -3.678265 10.842142 -7.020201 3.009490 3.469246 -29.401857 0.000002 -0.000000 -0.000000 -4.082780 12.890678 -17.327430 8.473057 2.596234 -31.156239 -0.000002 -0.000001 0.000001 -0.000002 -0.000000 0.000001 3.288662 0.039118 4.508596 4.380205 -5.760567 76.229795 -0.131993 16.099485 0.209166 -0.411580 -6.401550 -2.137890 15.817077 -2.752451 -17.229449 -2.377217 -30.694143 7.297130 0.000001 -0.000001 0.000002 2.362049 -3.610837 8.253916 -2.158551 -2.442008 18.093222 0.000001 0.000000 0.000002 -1.976241 -5.693458 13.449700 0.256031 -5.102829 26.444833 0.000000 0.000001 -0.000002 -4.985403 -10.120106 10.634561 4.005334 -4.043418 32.763997 -0.000000 -0.000000 0.000004 -6.465402 -11.353368 23.103026 10.733612 -2.553321 34.309546 -0.000000 -0.000000 -0.000001 0.000000 -0.000003 -0.000000 -0.000000 -0.000000 -0.000000 -0.000000 -0.000000 -0.000000 -0.000000 -0.000000 -0.000000 -0.000000 -0.000000 -0.000000 -0.000000 -0.000000 -0.000000 -0.000000 -0.000000 -0.000000 -0.000000 -0.000000 -0.000000 -0.000000 -0.000000 -0.000000 -0.000000 -0.000000 -0.000000 -0.000000 -0.000000 -0.000000 -0.000000 -0.000000 -0.000000 0.000000 0.000000 -0.000000 
-0.103290 84.952133 -0.198379 -4.033186 3.840470 -2.391584 0.000000 -0.000000 0.000000 -13.508427 5.690018 12.136936 24.045935 -4.340354 -0.338312 20.750825 6.860750 -10.668995 -0.000001 0.000000 0.000001 -0.000001 0.000000 0.000001 -0.000000 -0.000000 -0.000000 -9.480708 -3.250266 6.109363 21.463939 5.543738 0.164176 19.065771 -3.698048 -3.765356 -0.000000 -0.000000 0.000000 -0.000000 -0.000000 0.000000 -0.000000 -0.000000 0.000001 5.654015 0.176127 2.331471 -3.337778 0.549491 0.386076 -3.320330 0.701165 0.385159 2.515189 -0.193415 1.734311 1.739438 1.104876 -0.659583 0.000000 -0.000000 0.000000 0.000000 -0.000000 0.000000 0.000000 -0.000000 0.000000 3.178367 -7.009016 -2.352199 -2.167042 16.906537 -78.417873 0.722004 -11.747354 -2.032434 -1.117672 2.362795 1.106118 10.740232 -0.379948 16.174216 -1.029425 26.391885 -5.985994 -0.000001 -0.000000 -0.000000 1.226461 0.742234 -5.180343 -1.804785 1.929294 -16.833565 0.000000 0.000001 -0.000002 -1.931861 4.464546 -9.639186 -0.031692 4.100788 -23.961569 -0.000000 -0.000001 0.000002 -3.692791 10.830529 -7.136544 3.020771 3.471964 -29.518988 0.000001 -0.000001 -0.000001 -4.109335 12.866899 -17.436928 8.501040 2.596681 -31.236805 0.000001 0.000001 0.000002 -0.000000 -0.000001 -0.000001 3.255147 0.083546 4.464027 4.259373 -5.445941 76.213696 0.096246 16.076614 0.169203 -0.400068 -6.190141 -2.103124 15.810438 -2.728277 -17.226693 -2.588521 -30.387344 7.271672 0.000000 -0.000000 0.000001 2.360332 -3.594720 8.210097 -2.164249 -2.440814 17.779595 -0.000001 -0.000001 0.000003 -1.976555 -5.692458 13.390898 0.255960 -5.100424 26.116970 -0.000000 0.000001 -0.000000 -4.985177 -10.119344 10.598759 4.006245 -4.043577 32.458094 -0.000000 0.000001 0.000000 -6.467539 -11.352429 23.026161 10.728555 -2.552530 33.964270 0.000002 -0.000001 0.000000 -0.000000 -0.000001 -0.000001 -0.000000 -0.000000 -0.000000 -0.000000 -0.000000 -0.000000 -0.000000 -0.000000 -0.000000 -0.000000 -0.000000 -0.000000 -0.000000 -0.000000 0.000000 0.000000 -0.000000 -0.000000 -0.000000 -0.000000 -0.000000 -0.000000 -0.000000 0.000000 0.000000 -0.000000 -0.000000 -0.000000 0.000000 -0.000000 -0.000000 0.000000 -0.000000 0.000000 -0.000000 0.000000 
